<?xml version="1.0" encoding="UTF-8" standalone="no"?>
<svg
   xmlns:dc="http://purl.org/dc/elements/1.1/"
   xmlns:cc="http://creativecommons.org/ns#"
   xmlns:rdf="http://www.w3.org/1999/02/22-rdf-syntax-ns#"
   xmlns:svg="http://www.w3.org/2000/svg"
   xmlns="http://www.w3.org/2000/svg"
   viewBox="0 0 217.19733 122.60827"
   height="122.60827"
   width="217.19733"
   xml:space="preserve"
   id="svg2"
   version="1.1"><metadata
     id="metadata8"><rdf:RDF><cc:Work
         rdf:about=""><dc:format>image/svg+xml</dc:format><dc:type
           rdf:resource="http://purl.org/dc/dcmitype/StillImage" /></cc:Work></rdf:RDF></metadata><defs
     id="defs6"><clipPath
       id="clipPath18"
       clipPathUnits="userSpaceOnUse"><path
         id="path16"
         d="m 2.267,21.912 h 160.63 V 88.923 H 2.267 Z" /></clipPath><clipPath
       id="clipPath30"
       clipPathUnits="userSpaceOnUse"><path
         id="path28"
         d="M 0,91.956 H 162.898 V 0 H 0 Z" /></clipPath></defs><g
     transform="matrix(1.3333333,0,0,-1.3333333,0,122.60827)"
     id="g10"><g
       id="g12"><g
         clip-path="url(#clipPath18)"
         id="g14"><g
           transform="translate(2.8878,63.0972)"
           id="g20"><path
             id="path22"
             style="fill:#868789;fill-opacity:1;fill-rule:evenodd;stroke:none"
             d="m 0,0 c -0.571,-0.335 -0.779,-0.779 -0.494,-1.37 1.344,-2.083 2.688,-4.162 4.032,-6.245 0.633,-0.758 1.483,-0.926 2.471,-0.723 9.368,1.991 18.733,3.985 28.1,5.976 0.497,0.083 0.859,-0.088 1.026,-0.608 2.8,-11.55 5.604,-23.104 8.403,-34.654 0.879,-2.838 2.786,-3.455 5.324,-2.702 l 3.08,0.8 c 31.658,18.673 63.884,36.318 94.667,56.305 0.894,0.592 0.83,1.501 -0.268,1.592 -2.253,0.338 -8.217,-0.459 -11.194,-1.345 3.403,0.662 7.479,1.133 9.315,0.521 -0.821,-0.935 -1.377,-1.424 -2.332,-2.027 -30.439,-18.549 -62.394,-36.614 -93.45,-54.394 -2.021,-1.24 -4.159,-1.208 -4.936,2.133 -2.612,11.385 -5.321,22.165 -8.029,33.55 -0.347,1.597 -1.306,2.035 -2.862,1.711 C 23.989,-3.362 14.341,-5.4 5.48,-7.279 4.365,-7.529 3.8,-7.358 3.356,-6.594 2.345,-4.953 1.106,-3.123 0.094,-1.485 -0.127,-1.053 -0.182,-0.582 0,0" /></g></g></g><g
       id="g24"><g
         clip-path="url(#clipPath30)"
         id="g26"><g
           transform="translate(2.8412,61.9354)"
           id="g32"><path
             id="path34"
             style="fill:#868789;fill-opacity:1;fill-rule:evenodd;stroke:none"
             d="M 0,0 C 13.411,2.726 26.867,5.483 40.279,8.212 40.347,8.685 40.5,9.132 40.894,9.527 40.388,9.544 40.1,9.515 39.565,9.403 26.262,6.77 13.365,4.068 0.062,1.183 -0.074,0.891 -0.115,0.362 0,0" /></g><g
           transform="translate(54.7233,40.5353)"
           id="g36"><path
             id="path38"
             style="fill:#b1b3b4;fill-opacity:1;fill-rule:evenodd;stroke:none"
             d="m 0,0 0.327,1.3 c 1.105,0.403 5.064,2.892 7.591,4.33 8.32,4.65 16.638,9.006 24.958,13.329 7.774,3.83 15.65,7.453 23.585,10.959 8.971,3.811 18.033,7.394 26.807,9.679 4.809,0.921 7.676,1.032 9.414,0.539 C 92.277,39.718 91.953,39.312 91.476,38.938 85.353,39.365 77.926,37.368 72.082,35.03 59.717,30.38 47.409,24.859 35.123,18.959 23.324,13.085 11.638,6.685 0,0" /></g><g
           transform="translate(2.6379,61.9678)"
           id="g40"><path
             id="path42"
             style="fill:#fab000;fill-opacity:1;fill-rule:evenodd;stroke:none"
             d="m 0,0 c 1.141,-1.735 2.282,-3.659 3.424,-5.456 0.414,-0.811 1.37,-0.941 2.379,-0.676 9.177,1.947 18.314,3.82 27.491,5.768 1.306,0.217 2.236,-0.204 2.565,-1.344 l 8.138,-33.88 c 0.609,-2.953 2.556,-3.715 5.094,-2.103 l 31.288,17.932 c 8.459,4.862 16.847,9.688 25.306,14.553 12.738,7.5 35.485,20.653 37.918,22.727 -5.153,0.523 -11.126,-0.947 -17.185,-2.973 C 119.935,12.044 114.174,9.809 107.729,6.962 97.762,2.732 89.2,-1.397 80.217,-5.97 70.762,-11.009 61.286,-16.026 52.05,-21.394 c -1.503,-0.23 -2.924,0.547 -3.333,2.265 L 40.492,8.197 Z" /></g><g
           transform="translate(44.935,70.5091)"
           id="g44"><path
             id="path46"
             style="fill:#9b9d9f;fill-opacity:1;fill-rule:evenodd;stroke:none"
             d="m 0,0 3.482,-11.629 c 1.553,-5.241 3.112,-10.447 4.665,-15.688 0.441,-1.301 1.323,-1.692 2.5,-1.139 l 1.306,0.712 c -0.4,0.241 -0.762,0.621 -0.924,1.173 C 8.456,-17.779 5.632,-8.117 2.862,0.614 2.541,1.464 2.021,1.824 0.929,1.565 -0.097,1.367 -1.312,1.065 -2.341,0.867 -1.177,1.044 -0.294,1.015 0,0" /></g><g
           transform="translate(43.1174,70.1711)"
           id="g48"><path
             id="path50"
             style="fill:#d9dadb;fill-opacity:1;fill-rule:evenodd;stroke:none"
             d="M 0,0 C 0.094,0.538 0.262,0.947 0.591,1.285 1.259,1.256 1.676,0.909 1.864,0.279 c 2.724,-9.112 5.448,-18.223 8.171,-27.338 0.362,-1.047 1.051,-1.456 1.912,-1.256 l -0.344,-1.321 C 10.641,-30.02 8.797,-29.303 8.291,-27.6 5.508,-18.427 2.782,-9.174 0,0" /></g><g
           transform="translate(96.5965,53.3797)"
           id="g52"><path
             id="path54"
             style="fill:#ffffff;fill-opacity:1;fill-rule:evenodd;stroke:none"
             d="m 0,0 c 0.162,-0.294 0.026,-0.685 -0.303,-0.867 l -1.664,-0.915 c -0.33,-0.182 -0.733,-0.088 -0.895,0.208 -0.161,0.295 -0.199,0.588 -0.082,0.653 0.117,0.065 0.068,0.38 -0.106,0.697 L -3.924,1.367 C -4.1,1.688 -4.338,1.897 -4.456,1.833 -4.57,1.768 -4.8,1.956 -4.962,2.253 -5.123,2.547 -4.988,2.938 -4.658,3.121 l 1.296,0.714 c 0.333,0.18 0.745,0.068 0.918,-0.253 L -0.98,0.918 C -0.803,0.597 -0.579,0.383 -0.477,0.438 -0.376,0.494 -0.162,0.297 0,0" /></g><g
           transform="translate(96.5965,53.3797)"
           id="g56"><path
             id="path58"
             style="fill:none;stroke:#000000;stroke-width:0.375;stroke-linecap:round;stroke-linejoin:round;stroke-miterlimit:4;stroke-dasharray:none;stroke-opacity:1"
             d="m 0,0 c 0.162,-0.294 0.026,-0.685 -0.303,-0.867 l -1.664,-0.915 c -0.33,-0.182 -0.733,-0.088 -0.895,0.208 -0.161,0.295 -0.199,0.588 -0.082,0.653 0.117,0.065 0.068,0.38 -0.106,0.697 L -3.924,1.367 C -4.1,1.688 -4.338,1.897 -4.456,1.833 -4.57,1.768 -4.8,1.956 -4.962,2.253 -5.123,2.547 -4.988,2.938 -4.658,3.121 l 1.296,0.714 c 0.333,0.18 0.745,0.068 0.918,-0.253 L -0.98,0.918 C -0.803,0.597 -0.579,0.383 -0.477,0.438 -0.376,0.494 -0.162,0.297 0,0 Z" /></g><g
           transform="translate(72.2261,40.4706)"
           id="g60"><path
             id="path62"
             style="fill:#ffffff;fill-opacity:1;fill-rule:evenodd;stroke:none"
             d="M 0,0 C 0.206,-0.373 0.059,-0.852 -0.327,-1.068 L -2.747,-2.4 c -0.388,-0.211 -0.871,-0.079 -1.076,0.295 l -0.009,0.014 c -0.203,0.374 -0.232,0.756 -0.062,0.85 0.168,0.094 0.138,0.477 -0.065,0.85 L -4.856,1.242 C -5.062,1.615 -5.368,1.845 -5.538,1.751 -5.709,1.66 -6.014,1.888 -6.221,2.262 L -6.226,2.277 C -6.432,2.65 -6.286,3.13 -5.9,3.342 l 2.421,1.335 c 0.388,0.212 0.87,0.079 1.076,-0.294 L -2.394,4.368 C -2.191,3.991 -2.159,3.612 -2.33,3.518 -2.497,3.427 -2.467,3.044 -2.262,2.671 l 0.898,-1.633 c 0.202,-0.376 0.508,-0.605 0.679,-0.511 0.168,0.091 0.473,-0.138 0.679,-0.512 z" /></g><g
           transform="translate(72.2261,40.4706)"
           id="g64"><path
             id="path66"
             style="fill:none;stroke:#000000;stroke-width:0.375;stroke-linecap:round;stroke-linejoin:round;stroke-miterlimit:4;stroke-dasharray:none;stroke-opacity:1"
             d="M 0,0 C 0.206,-0.373 0.059,-0.852 -0.327,-1.068 L -2.747,-2.4 c -0.388,-0.211 -0.871,-0.079 -1.076,0.295 l -0.009,0.014 c -0.203,0.374 -0.232,0.756 -0.062,0.85 0.168,0.094 0.138,0.477 -0.065,0.85 L -4.856,1.242 C -5.062,1.615 -5.368,1.845 -5.538,1.751 -5.709,1.66 -6.014,1.888 -6.221,2.262 L -6.226,2.277 C -6.432,2.65 -6.286,3.13 -5.9,3.342 l 2.421,1.335 c 0.388,0.212 0.87,0.079 1.076,-0.294 L -2.394,4.368 C -2.191,3.991 -2.159,3.612 -2.33,3.518 -2.497,3.427 -2.467,3.044 -2.262,2.671 l 0.898,-1.633 c 0.202,-0.376 0.508,-0.605 0.679,-0.511 0.168,0.091 0.473,-0.138 0.679,-0.512 z" /></g><g
           transform="translate(78.1728,43.7444)"
           id="g68"><path
             id="path70"
             style="fill:#ffffff;fill-opacity:1;fill-rule:evenodd;stroke:none"
             d="m 0,0 c 0.206,-0.373 0.056,-0.853 -0.329,-1.068 l -2.362,-1.299 c -0.385,-0.213 -0.87,-0.08 -1.076,0.293 l -0.006,0.015 c -0.206,0.374 -0.244,0.753 -0.085,0.838 0.158,0.089 0.12,0.468 -0.083,0.841 L -4.838,1.253 C -5.044,1.626 -5.385,1.836 -5.597,1.72 -5.808,1.603 -5.853,1.274 -5.697,0.986 -5.538,0.697 -5.694,0.306 -6.038,0.117 -6.385,-0.074 -6.835,0.077 -7.041,0.45 l -0.582,1.059 c -0.203,0.373 -0.056,0.853 0.329,1.065 l 5.248,2.888 c 0.384,0.214 0.87,0.082 1.073,-0.292 L -0.391,4.112 C -0.185,3.735 -0.303,3.274 -0.647,3.086 -0.994,2.894 -1.406,2.973 -1.565,3.259 -1.72,3.547 -2.023,3.689 -2.232,3.57 -2.444,3.456 -2.449,3.053 -2.244,2.68 l 0.897,-1.633 c 0.203,-0.373 0.506,-0.606 0.668,-0.515 0.165,0.088 0.464,-0.143 0.671,-0.517 z" /></g><g
           transform="translate(78.1728,43.7444)"
           id="g72"><path
             id="path74"
             style="fill:none;stroke:#000000;stroke-width:0.375;stroke-linecap:round;stroke-linejoin:round;stroke-miterlimit:4;stroke-dasharray:none;stroke-opacity:1"
             d="m 0,0 c 0.206,-0.373 0.056,-0.853 -0.329,-1.068 l -2.362,-1.299 c -0.385,-0.213 -0.87,-0.08 -1.076,0.293 l -0.006,0.015 c -0.206,0.374 -0.244,0.753 -0.085,0.838 0.158,0.089 0.12,0.468 -0.083,0.841 L -4.838,1.253 C -5.044,1.626 -5.385,1.836 -5.597,1.72 -5.808,1.603 -5.853,1.274 -5.697,0.986 -5.538,0.697 -5.694,0.306 -6.038,0.117 -6.385,-0.074 -6.835,0.077 -7.041,0.45 l -0.582,1.059 c -0.203,0.373 -0.056,0.853 0.329,1.065 l 5.248,2.888 c 0.384,0.214 0.87,0.082 1.073,-0.292 L -0.391,4.112 C -0.185,3.735 -0.303,3.274 -0.647,3.086 -0.994,2.894 -1.406,2.973 -1.565,3.259 -1.72,3.547 -2.023,3.689 -2.232,3.57 -2.444,3.456 -2.449,3.053 -2.244,2.68 l 0.897,-1.633 c 0.203,-0.373 0.506,-0.606 0.668,-0.515 0.165,0.088 0.464,-0.143 0.671,-0.517 z" /></g><g
           transform="translate(83.7408,45.8089)"
           id="g76"><path
             id="path78"
             style="fill:#ffffff;fill-opacity:1;fill-rule:evenodd;stroke:none"
             d="m 0,0 c 0.047,-0.088 -0.182,-0.309 -0.512,-0.488 l -0.091,-0.05 c -0.329,-0.183 -0.744,-0.067 -0.917,0.25 l -0.227,0.411 c -0.174,0.318 -0.047,0.73 0.283,0.909 l 0.091,0.051 c 0.329,0.182 0.867,0.197 1.197,0.032 0,0 0.196,-0.1 0.62,0.135 L 0.753,1.421 C 0.741,1.641 0.659,1.9 0.568,1.995 L 0.421,2.009 C 0.262,2.024 -0.041,2.001 -0.491,1.938 -1.056,1.862 -1.486,1.83 -1.776,1.839 -2.047,1.847 -2.315,1.915 -2.577,2.047 l -0.259,0.13 c -0.188,0.244 -0.426,0.729 -0.532,1.079 0,0 -0.079,0.271 0.124,0.718 0.203,0.443 0.556,0.806 1.059,1.082 0.503,0.276 0.8,0.294 0.8,0.294 0.373,0.024 0.641,0.112 0.594,0.195 -0.047,0.082 0.185,0.299 0.515,0.482 l 0.1,0.052 C 0.153,6.262 0.565,6.15 0.741,5.829 L 0.87,5.594 C 1.044,5.274 0.918,4.865 0.588,4.686 L 0.506,4.638 C 0.176,4.456 -0.367,4.433 -0.703,4.585 c 0,0 -0.141,0.062 -0.538,-0.155 L -1.52,4.274 C -1.506,4.065 -1.432,3.823 -1.359,3.741 L -1.25,3.735 C -1.147,3.727 -0.835,3.75 -0.318,3.803 0.376,3.874 0.847,3.906 1.097,3.9 1.224,3.897 1.365,3.877 1.518,3.835 L 1.671,3.791 c 0.144,-0.067 0.37,-0.199 0.506,-0.297 0.135,-0.1 0.47,-0.735 0.57,-1.085 0,0 0.059,-0.218 -0.141,-0.7 C 2.406,1.224 2.035,0.833 1.492,0.532 0.989,0.256 0.588,0.221 0.588,0.221 0.215,0.188 -0.05,0.088 0,0" /></g><g
           transform="translate(83.7408,45.8089)"
           id="g80"><path
             id="path82"
             style="fill:none;stroke:#000000;stroke-width:0.375;stroke-linecap:round;stroke-linejoin:round;stroke-miterlimit:4;stroke-dasharray:none;stroke-opacity:1"
             d="m 0,0 c 0.047,-0.088 -0.182,-0.309 -0.512,-0.488 l -0.091,-0.05 c -0.329,-0.183 -0.744,-0.067 -0.917,0.25 l -0.227,0.411 c -0.174,0.318 -0.047,0.73 0.283,0.909 l 0.091,0.051 c 0.329,0.182 0.867,0.197 1.197,0.032 0,0 0.196,-0.1 0.62,0.135 L 0.753,1.421 C 0.741,1.641 0.659,1.9 0.568,1.995 L 0.421,2.009 C 0.262,2.024 -0.041,2.001 -0.491,1.938 -1.056,1.862 -1.486,1.83 -1.776,1.839 -2.047,1.847 -2.315,1.915 -2.577,2.047 l -0.259,0.13 c -0.188,0.244 -0.426,0.729 -0.532,1.079 0,0 -0.079,0.271 0.124,0.718 0.203,0.443 0.556,0.806 1.059,1.082 0.503,0.276 0.8,0.294 0.8,0.294 0.373,0.024 0.641,0.112 0.594,0.195 -0.047,0.082 0.185,0.299 0.515,0.482 l 0.1,0.052 C 0.153,6.262 0.565,6.15 0.741,5.829 L 0.87,5.594 C 1.044,5.274 0.918,4.865 0.588,4.686 L 0.506,4.638 C 0.176,4.456 -0.367,4.433 -0.703,4.585 c 0,0 -0.141,0.062 -0.538,-0.155 L -1.52,4.274 C -1.506,4.065 -1.432,3.823 -1.359,3.741 L -1.25,3.735 C -1.147,3.727 -0.835,3.75 -0.318,3.803 0.376,3.874 0.847,3.906 1.097,3.9 1.224,3.897 1.365,3.877 1.518,3.835 L 1.671,3.791 c 0.144,-0.067 0.37,-0.199 0.506,-0.297 0.135,-0.1 0.47,-0.735 0.57,-1.085 0,0 0.059,-0.218 -0.141,-0.7 C 2.406,1.224 2.035,0.833 1.492,0.532 0.989,0.256 0.588,0.221 0.588,0.221 0.215,0.188 -0.05,0.088 0,0 Z" /></g><g
           transform="translate(86.8407,49.5593)"
           id="g84"><path
             id="path86"
             style="fill:#ffffff;fill-opacity:1;fill-rule:evenodd;stroke:none"
             d="M 0,0 C -0.276,0.503 -0.261,1.062 0.044,1.679 0.347,2.297 0.921,2.835 1.759,3.3 2.606,3.765 3.385,3.976 4.098,3.935 4.809,3.891 5.315,3.603 5.606,3.067 5.891,2.549 5.877,1.979 5.559,1.356 5.244,0.735 4.671,0.194 3.845,-0.262 2.947,-0.756 2.156,-0.968 1.467,-0.898 0.779,-0.83 0.291,-0.529 0,0 m 1.915,1.641 c 0.1,-0.274 0.394,-0.709 0.65,-0.971 0,0 0.212,-0.217 0.667,0.036 C 3.715,0.971 3.647,1.279 3.647,1.279 3.567,1.635 3.368,2.114 3.2,2.341 L 3.006,2.415 C 2.809,2.488 2.6,2.464 2.382,2.341 2.165,2.223 2.027,2.059 1.97,1.85 Z" /></g><g
           transform="translate(86.8407,49.5593)"
           id="g88"><path
             id="path90"
             style="fill:none;stroke:#000000;stroke-width:0.375;stroke-linecap:round;stroke-linejoin:round;stroke-miterlimit:4;stroke-dasharray:none;stroke-opacity:1"
             d="M 0,0 C -0.276,0.503 -0.261,1.062 0.044,1.679 0.347,2.297 0.921,2.835 1.759,3.3 2.606,3.765 3.385,3.976 4.098,3.935 4.809,3.891 5.315,3.603 5.606,3.067 5.891,2.549 5.877,1.979 5.559,1.356 5.244,0.735 4.671,0.194 3.845,-0.262 2.947,-0.756 2.156,-0.968 1.467,-0.898 0.779,-0.83 0.291,-0.529 0,0 Z m 1.915,1.641 c 0.1,-0.274 0.394,-0.709 0.65,-0.971 0,0 0.212,-0.217 0.667,0.036 C 3.715,0.971 3.647,1.279 3.647,1.279 3.567,1.635 3.368,2.114 3.2,2.341 L 3.006,2.415 C 2.809,2.488 2.6,2.464 2.382,2.341 2.165,2.223 2.027,2.059 1.97,1.85 Z" /></g><g
           transform="translate(100.932,55.6619)"
           id="g92"><path
             id="path94"
             style="fill:#ffffff;fill-opacity:1;fill-rule:evenodd;stroke:none"
             d="M 0,0 C -0.017,-0.364 -0.3,-0.815 -0.629,-0.997 L -1.091,-1.25 c -0.33,-0.182 -0.862,-0.185 -1.182,-0.006 l -1.639,0.915 c -0.32,0.176 -0.673,0.273 -0.782,0.215 -0.109,-0.062 -0.333,0.132 -0.495,0.426 -0.161,0.297 -0.026,0.686 0.304,0.868 l 1.617,0.891 C -2.938,2.241 -2.535,2.147 -2.373,1.85 -2.209,1.556 -2.177,1.259 -2.3,1.191 -2.424,1.123 -2.273,0.9 -1.97,0.694 L -1.697,0.509 C -1.394,0.303 -1.147,0.432 -1.15,0.8 L -1.153,1.153 C -1.156,1.518 -1.25,1.771 -1.359,1.709 -1.467,1.65 -1.691,1.842 -1.853,2.135 -2.015,2.433 -1.879,2.824 -1.55,3.003 l 0.871,0.479 C -0.35,3.665 0.05,3.57 0.215,3.274 0.376,2.979 0.421,2.689 0.315,2.629 0.209,2.574 0.106,2.223 0.088,1.856 Z" /></g><g
           transform="translate(100.932,55.6619)"
           id="g96"><path
             id="path98"
             style="fill:none;stroke:#000000;stroke-width:0.375;stroke-linecap:round;stroke-linejoin:round;stroke-miterlimit:4;stroke-dasharray:none;stroke-opacity:1"
             d="M 0,0 C -0.017,-0.364 -0.3,-0.815 -0.629,-0.997 L -1.091,-1.25 c -0.33,-0.182 -0.862,-0.185 -1.182,-0.006 l -1.639,0.915 c -0.32,0.176 -0.673,0.273 -0.782,0.215 -0.109,-0.062 -0.333,0.132 -0.495,0.426 -0.161,0.297 -0.026,0.686 0.304,0.868 l 1.617,0.891 C -2.938,2.241 -2.535,2.147 -2.373,1.85 -2.209,1.556 -2.177,1.259 -2.3,1.191 -2.424,1.123 -2.273,0.9 -1.97,0.694 L -1.697,0.509 C -1.394,0.303 -1.147,0.432 -1.15,0.8 L -1.153,1.153 C -1.156,1.518 -1.25,1.771 -1.359,1.709 -1.467,1.65 -1.691,1.842 -1.853,2.135 -2.015,2.433 -1.879,2.824 -1.55,3.003 l 0.871,0.479 C -0.35,3.665 0.05,3.57 0.215,3.274 0.376,2.979 0.421,2.689 0.315,2.629 0.209,2.574 0.106,2.223 0.088,1.856 Z" /></g><g
           transform="translate(105.7704,58.8913)"
           id="g100"><path
             id="path102"
             style="fill:#ffffff;fill-opacity:1;fill-rule:evenodd;stroke:none"
             d="m 0,0 c 0.032,0.156 0.344,0.401 0.691,0.547 l 0.547,0.23 C 1.585,0.924 1.856,0.868 1.841,0.653 L 1.7,0.259 C 1.559,0.041 1.279,-0.306 1.079,-0.514 c -0.197,-0.21 -1.196,-0.804 -1.544,-0.95 0,0 -1.091,-0.465 -1.744,-0.394 -0.65,0.07 -1.12,0.373 -1.415,0.906 -0.285,0.523 -0.291,1.085 -0.017,1.688 0.267,0.6 0.794,1.117 1.579,1.547 C -1.309,2.7 -0.603,2.874 0.053,2.806 0.697,2.735 1.171,2.218 1.171,2.218 1.415,1.947 1.347,1.577 1.017,1.397 L -0.93,0.324 C -1.262,0.142 -1.37,-0.162 -1.177,-0.352 -0.983,-0.544 -0.035,-0.156 0,0 m -1.762,0.474 c 0.006,-0.012 0.276,0.123 0.597,0.3 0.318,0.173 0.568,0.344 0.556,0.377 -0.014,0.032 -0.141,0.205 -0.273,0.376 L -1.059,1.589 C -1.236,1.647 -1.412,1.626 -1.594,1.527 -1.779,1.424 -1.888,1.279 -1.915,1.094 L -1.938,0.906 c 0.079,-0.212 0.167,-0.42 0.176,-0.432" /></g><g
           transform="translate(105.7704,58.8913)"
           id="g104"><path
             id="path106"
             style="fill:none;stroke:#000000;stroke-width:0.375;stroke-linecap:round;stroke-linejoin:round;stroke-miterlimit:4;stroke-dasharray:none;stroke-opacity:1"
             d="m 0,0 c 0.032,0.156 0.344,0.401 0.691,0.547 l 0.547,0.23 C 1.585,0.924 1.856,0.868 1.841,0.653 L 1.7,0.259 C 1.559,0.041 1.279,-0.306 1.079,-0.514 c -0.197,-0.21 -1.196,-0.804 -1.544,-0.95 0,0 -1.091,-0.465 -1.744,-0.394 -0.65,0.07 -1.12,0.373 -1.415,0.906 -0.285,0.523 -0.291,1.085 -0.017,1.688 0.267,0.6 0.794,1.117 1.579,1.547 C -1.309,2.7 -0.603,2.874 0.053,2.806 0.697,2.735 1.171,2.218 1.171,2.218 1.415,1.947 1.347,1.577 1.017,1.397 L -0.93,0.324 C -1.262,0.142 -1.37,-0.162 -1.177,-0.352 -0.983,-0.544 -0.035,-0.156 0,0 Z m -1.762,0.474 c 0.006,-0.012 0.276,0.123 0.597,0.3 0.318,0.173 0.568,0.344 0.556,0.377 -0.014,0.032 -0.141,0.205 -0.273,0.376 L -1.059,1.589 C -1.236,1.647 -1.412,1.626 -1.594,1.527 -1.779,1.424 -1.888,1.279 -1.915,1.094 L -1.938,0.906 c 0.079,-0.212 0.167,-0.42 0.176,-0.432 z" /></g><g
           transform="translate(114.2146,63.7793)"
           id="g108"><path
             id="path110"
             style="fill:#ffffff;fill-opacity:1;fill-rule:evenodd;stroke:none"
             d="M 0,0 C 0.141,0.077 0.391,-0.099 0.553,-0.394 0.715,-0.69 0.579,-1.082 0.25,-1.261 l -1.394,-0.768 c -0.329,-0.179 -0.627,-0.276 -0.662,-0.215 -0.033,0.065 -0.265,-0.114 -0.515,-0.394 0,0 -0.215,-0.241 -0.72,-0.518 -0.562,-0.311 -1.142,-0.438 -1.736,-0.382 -0.597,0.053 -1.044,0.356 -1.344,0.903 -0.323,0.592 -0.373,1.156 -0.149,1.697 0.228,0.538 0.676,0.994 1.35,1.365 0.493,0.27 0.749,0.312 0.749,0.312 0.371,0.055 0.595,0.244 0.5,0.418 -0.094,0.17 -0.285,0.249 -0.427,0.173 -0.14,-0.079 -0.387,0.1 -0.549,0.397 -0.162,0.294 -0.026,0.685 0.303,0.865 l 1.385,0.764 c 0.33,0.18 0.741,0.068 0.918,-0.252 L -0.58,0.439 C -0.403,0.118 -0.145,-0.079 0,0 m -2.674,-0.629 c -0.117,0.215 -0.273,0.362 -0.467,0.441 l -0.195,0.08 c -0.24,-0.082 -0.564,-0.298 -0.717,-0.474 -0.156,-0.179 0.126,-1.006 0.276,-1.203 l 0.191,-0.073 c 0.189,-0.08 0.4,-0.057 0.63,0.07 0.209,0.115 0.344,0.271 0.409,0.468 0.059,0.197 0.017,0.426 -0.127,0.691" /></g><g
           transform="translate(114.2146,63.7793)"
           id="g112"><path
             id="path114"
             style="fill:none;stroke:#000000;stroke-width:0.375;stroke-linecap:round;stroke-linejoin:round;stroke-miterlimit:4;stroke-dasharray:none;stroke-opacity:1"
             d="M 0,0 C 0.141,0.077 0.391,-0.099 0.553,-0.394 0.715,-0.69 0.579,-1.082 0.25,-1.261 l -1.394,-0.768 c -0.329,-0.179 -0.627,-0.276 -0.662,-0.215 -0.033,0.065 -0.265,-0.114 -0.515,-0.394 0,0 -0.215,-0.241 -0.72,-0.518 -0.562,-0.311 -1.142,-0.438 -1.736,-0.382 -0.597,0.053 -1.044,0.356 -1.344,0.903 -0.323,0.592 -0.373,1.156 -0.149,1.697 0.228,0.538 0.676,0.994 1.35,1.365 0.493,0.27 0.749,0.312 0.749,0.312 0.371,0.055 0.595,0.244 0.5,0.418 -0.094,0.17 -0.285,0.249 -0.427,0.173 -0.14,-0.079 -0.387,0.1 -0.549,0.397 -0.162,0.294 -0.026,0.685 0.303,0.865 l 1.385,0.764 c 0.33,0.18 0.741,0.068 0.918,-0.252 L -0.58,0.439 C -0.403,0.118 -0.145,-0.079 0,0 Z m -2.674,-0.629 c -0.117,0.215 -0.273,0.362 -0.467,0.441 l -0.195,0.08 c -0.24,-0.082 -0.564,-0.298 -0.717,-0.474 -0.156,-0.179 0.126,-1.006 0.276,-1.203 l 0.191,-0.073 c 0.189,-0.08 0.4,-0.057 0.63,0.07 0.209,0.115 0.344,0.271 0.409,0.468 0.059,0.197 0.017,0.426 -0.127,0.691 z" /></g><g
           transform="translate(116.441,66.9153)"
           id="g116"><path
             id="path118"
             style="fill:#ffffff;fill-opacity:1;fill-rule:evenodd;stroke:none"
             d="M 0,0 C 0.111,-0.347 -0.065,-0.78 -0.395,-0.962 L -0.6,-1.074 c -0.33,-0.182 -0.788,-0.1 -1.021,0.183 l -0.282,0.344 c -0.232,0.279 -0.565,0.77 -0.741,1.091 L -2.78,0.788 c -0.173,0.32 -0.047,0.729 0.282,0.911 l 0.789,0.436 c 0.333,0.18 0.744,0.067 0.918,-0.253 l 0.12,-0.215 c 0.176,-0.32 0.412,-0.864 0.523,-1.211 z m 1.297,-1.839 c 0.173,-0.32 0.05,-0.729 -0.28,-0.912 l -0.858,-0.47 c -0.33,-0.182 -0.742,-0.068 -0.918,0.25 l -0.065,0.12 c -0.176,0.321 -0.049,0.73 0.28,0.912 l 0.856,0.471 c 0.329,0.182 0.744,0.071 0.918,-0.25 z" /></g><g
           transform="translate(116.441,66.9153)"
           id="g120"><path
             id="path122"
             style="fill:none;stroke:#000000;stroke-width:0.375;stroke-linecap:round;stroke-linejoin:round;stroke-miterlimit:4;stroke-dasharray:none;stroke-opacity:1"
             d="M 0,0 C 0.111,-0.347 -0.065,-0.78 -0.395,-0.962 L -0.6,-1.074 c -0.33,-0.182 -0.788,-0.1 -1.021,0.183 l -0.282,0.344 c -0.232,0.279 -0.565,0.77 -0.741,1.091 L -2.78,0.788 c -0.173,0.32 -0.047,0.729 0.282,0.911 l 0.789,0.436 c 0.333,0.18 0.744,0.067 0.918,-0.253 l 0.12,-0.215 c 0.176,-0.32 0.412,-0.864 0.523,-1.211 z m 1.297,-1.839 c 0.173,-0.32 0.05,-0.729 -0.28,-0.912 l -0.858,-0.47 c -0.33,-0.182 -0.742,-0.068 -0.918,0.25 l -0.065,0.12 c -0.176,0.321 -0.049,0.73 0.28,0.912 l 0.856,0.471 c 0.329,0.182 0.744,0.071 0.918,-0.25 z" /></g><g
           transform="translate(72.0439,69.6063)"
           id="g124"><path
             id="path126"
             style="fill:#565757;fill-opacity:1;fill-rule:evenodd;stroke:none"
             d="m 0,0 5.197,-10.439 -12.441,-6.214 c -0.494,-0.248 -0.986,-0.374 -1.465,-0.385 -0.191,-0.003 -0.382,0.011 -0.57,0.043 -0.656,0.116 -1.094,0.409 -1.342,0.904 l -1.568,3.146 c -0.244,0.492 -0.214,1.024 0.089,1.619 0.306,0.6 0.809,1.078 1.497,1.423 l 10.441,5.214 -1.632,3.277 c -0.133,0.265 -0.377,0.429 -0.73,0.491 -0.094,0.015 -0.185,0.021 -0.282,0.021 -0.238,-0.006 -0.477,-0.068 -0.712,-0.186 l -8.597,-4.294 c -0.603,-0.299 -1.185,-0.929 -0.538,-2.226 l 0.506,-1.02 -1.753,-0.88 -0.574,1.156 c -0.906,1.814 -0.523,3.106 1.165,3.95 l 9.938,4.965 c 0.489,0.244 0.977,0.37 1.459,0.382 0.195,0.002 0.386,-0.012 0.574,-0.044 C -0.685,0.785 -0.247,0.491 0,0 m -7.344,-15.127 9.912,4.95 -2.024,4.071 -9.914,-4.95 c -0.33,-0.165 -0.58,-0.4 -0.733,-0.7 -0.165,-0.315 -0.182,-0.612 -0.05,-0.877 l 1.085,-2.17 c 0.13,-0.268 0.374,-0.43 0.727,-0.488 0.094,-0.018 0.188,-0.024 0.282,-0.021 0.238,0.006 0.482,0.065 0.715,0.185" /></g><g
           transform="translate(88.4964,79.756)"
           id="g128"><path
             id="path130"
             style="fill:#565757;fill-opacity:1;fill-rule:evenodd;stroke:none"
             d="M 0,0 C 0.253,0.006 0.489,-0.029 0.712,-0.108 1.365,-0.332 1.927,-0.92 2.38,-1.853 L 2.803,-2.706 0.977,-3.617 0.574,-2.802 c -0.256,0.508 -0.571,0.832 -0.938,0.955 -0.124,0.041 -0.25,0.059 -0.386,0.056 -0.215,-0.003 -0.443,-0.068 -0.685,-0.188 l -8.576,-4.282 c -0.327,-0.162 -0.574,-0.398 -0.727,-0.698 -0.159,-0.314 -0.174,-0.609 -0.041,-0.876 l 3.888,-7.809 c 0.133,-0.265 0.377,-0.432 0.727,-0.494 0.094,-0.015 0.191,-0.024 0.285,-0.021 0.238,0.006 0.474,0.068 0.709,0.182 l 8.541,4.268 c 0.597,0.297 1.174,0.927 0.529,2.221 l -0.509,1.023 1.827,0.909 0.571,-1.15 c 0.905,-1.814 0.523,-3.108 -1.165,-3.949 l -9.935,-4.965 c -0.492,-0.244 -0.98,-0.374 -1.459,-0.386 -0.195,-0.003 -0.385,0.012 -0.576,0.048 -0.654,0.114 -1.092,0.408 -1.336,0.899 l -4.303,8.639 c -0.244,0.494 -0.215,1.023 0.089,1.614 0.305,0.603 0.808,1.083 1.496,1.427 l 9.962,4.976 C -0.92,-0.147 -0.44,-0.011 0,0" /></g><g
           transform="translate(113.1206,79.3389)"
           id="g132"><path
             id="path134"
             style="fill:#565757;fill-opacity:1;fill-rule:evenodd;stroke:none"
             d="m 0,0 c 0.247,-0.492 0.218,-1.021 -0.086,-1.615 -0.306,-0.6 -0.808,-1.08 -1.497,-1.424 l -9.961,-4.976 c -0.492,-0.247 -0.983,-0.374 -1.465,-0.386 -0.192,-0.003 -0.383,0.012 -0.571,0.045 -0.656,0.114 -1.094,0.409 -1.338,0.903 l -4.3,8.635 c -0.25,0.497 -0.221,1.023 0.082,1.617 0.306,0.601 0.812,1.08 1.498,1.424 l 9.961,4.976 c 0.492,0.247 0.983,0.374 1.465,0.386 0.194,0.003 0.382,-0.012 0.57,-0.045 0.656,-0.114 1.095,-0.408 1.342,-0.902 z m -2.074,-1.374 c 0.159,0.318 0.177,0.612 0.044,0.876 L -5.918,7.309 C -6.051,7.576 -6.295,7.744 -6.645,7.803 -6.742,7.817 -6.838,7.826 -6.935,7.823 -7.171,7.817 -7.406,7.758 -7.642,7.641 l -8.603,-4.297 c -0.329,-0.165 -0.573,-0.4 -0.726,-0.697 -0.161,-0.318 -0.176,-0.612 -0.044,-0.877 l 3.888,-7.812 c 0.136,-0.264 0.377,-0.429 0.73,-0.491 0.094,-0.015 0.188,-0.021 0.285,-0.021 0.238,0.006 0.476,0.068 0.712,0.186 l 8.594,4.291 c 0.33,0.165 0.577,0.4 0.732,0.703" /></g><g
           transform="translate(112.1116,78.3299)"
           id="g136"><path
             id="path138"
             style="fill:#bbbdbf;fill-opacity:1;fill-rule:evenodd;stroke:none"
             d="m 0,0 c 0.244,-0.495 0.215,-1.024 -0.088,-1.618 -0.307,-0.6 -0.809,-1.079 -1.498,-1.423 l -9.961,-4.977 c -0.492,-0.244 -0.98,-0.374 -1.462,-0.385 -0.192,-0.003 -0.382,0.011 -0.573,0.044 -0.654,0.114 -1.094,0.412 -1.339,0.903 l -4.3,8.638 c -0.247,0.494 -0.218,1.02 0.086,1.617 0.305,0.601 0.808,1.077 1.497,1.421 l 9.961,4.977 c 0.492,0.247 0.983,0.377 1.465,0.385 0.191,0.003 0.383,-0.008 0.571,-0.044 0.656,-0.115 1.094,-0.409 1.338,-0.9 z m -2.077,-1.374 c 0.162,0.315 0.177,0.609 0.045,0.874 L -5.921,7.309 C -6.053,7.576 -6.298,7.741 -6.647,7.8 -6.744,7.817 -6.841,7.823 -6.938,7.823 -7.174,7.817 -7.409,7.755 -7.642,7.641 l -8.605,-4.3 c -0.327,-0.165 -0.574,-0.4 -0.727,-0.697 -0.161,-0.315 -0.176,-0.609 -0.044,-0.874 l 3.888,-7.815 c 0.136,-0.264 0.377,-0.429 0.73,-0.488 0.094,-0.018 0.191,-0.023 0.288,-0.02 0.235,0.005 0.474,0.064 0.712,0.182 l 8.591,4.294 c 0.333,0.165 0.577,0.4 0.732,0.703 m -22.549,1.788 c 0.253,0.006 0.487,-0.029 0.714,-0.108 0.653,-0.224 1.212,-0.809 1.665,-1.744 l 0.423,-0.85 -1.826,-0.912 -0.403,0.812 c -0.253,0.512 -0.57,0.832 -0.939,0.955 -0.12,0.042 -0.25,0.059 -0.381,0.059 -0.219,-0.005 -0.448,-0.067 -0.689,-0.188 l -8.573,-4.285 c -0.33,-0.162 -0.574,-0.397 -0.727,-0.698 -0.162,-0.314 -0.174,-0.608 -0.041,-0.873 l 3.885,-7.812 c 0.132,-0.264 0.379,-0.429 0.727,-0.491 0.097,-0.018 0.191,-0.023 0.288,-0.021 0.236,0.003 0.47,0.065 0.705,0.18 l 8.542,4.268 c 0.597,0.3 1.177,0.926 0.529,2.223 l -0.508,1.021 1.826,0.911 0.573,-1.152 c 0.903,-1.815 0.524,-3.109 -1.164,-3.95 l -9.938,-4.965 c -0.491,-0.244 -0.98,-0.374 -1.459,-0.383 -0.194,-0.006 -0.385,0.009 -0.574,0.045 -0.652,0.114 -1.091,0.409 -1.338,0.903 l -4.3,8.638 c -0.247,0.491 -0.218,1.02 0.085,1.614 0.306,0.6 0.809,1.08 1.497,1.424 l 9.962,4.976 c 0.518,0.259 0.997,0.395 1.439,0.403 m -16.454,-10.15 5.197,-10.438 -12.441,-6.214 c -0.491,-0.244 -0.982,-0.374 -1.464,-0.383 -0.191,-0.006 -0.383,0.009 -0.571,0.045 -0.656,0.111 -1.094,0.408 -1.338,0.899 l -1.571,3.15 c -0.244,0.492 -0.215,1.021 0.089,1.615 0.305,0.6 0.808,1.08 1.496,1.424 l 10.441,5.217 -1.632,3.274 c -0.129,0.265 -0.373,0.432 -0.727,0.491 -0.094,0.018 -0.188,0.024 -0.284,0.021 -0.239,-0.006 -0.477,-0.068 -0.712,-0.186 l -8.594,-4.294 c -0.604,-0.297 -1.189,-0.929 -0.542,-2.227 l 0.509,-1.02 -1.756,-0.876 -0.57,1.152 c -0.906,1.815 -0.527,3.106 1.161,3.95 l 9.939,4.968 c 0.491,0.241 0.979,0.371 1.462,0.38 0.191,0.006 0.382,-0.009 0.57,-0.045 0.656,-0.117 1.091,-0.412 1.338,-0.903 m -7.341,-15.123 9.912,4.947 -2.026,4.074 -9.915,-4.954 c -0.33,-0.164 -0.577,-0.4 -0.73,-0.699 -0.168,-0.315 -0.182,-0.612 -0.049,-0.877 l 1.082,-2.167 c 0.129,-0.268 0.376,-0.432 0.726,-0.492 0.094,-0.014 0.188,-0.02 0.286,-0.02 0.238,0.006 0.479,0.067 0.714,0.188" /></g><text
           id="text142"
           style="font-variant:normal;font-weight:bold;font-stretch:normal;font-size:14.58640003px;font-family:'Myriad Pro';-inkscape-font-specification:MyriadPro-Bold;writing-mode:lr-tb;fill:#fcfcfc;fill-opacity:1;fill-rule:nonzero;stroke:none"
           transform="matrix(1,0,0,-1,0,7.1045)"><tspan
             id="tspan140"
             y="0"
             x="0 8.4746981 16.176317 22.594334 31.010687 33.957138 42.358906 50.775257 63.319561 72.042229 80.546104 85.826378 93.528 99.070831 105.40133 108.34778 116.93917 124.66996 129.90648 133.69894 136.6454 144.02611 149.3064 157.86861">Zaco Computers Pvt. Ltd.</tspan></text>
</g></g></g></svg>